<svg xmlns="http://www.w3.org/2000/svg" viewBox="0 0 100 100" width="32" height="32">
  <!-- Ball base -->
  <circle cx="50" cy="50" r="48" fill="white" stroke="#111" stroke-width="3"/>

  <!-- Centre pentagon -->
  <polygon points="50,28 65,40 59,58 41,58 35,40"
           fill="#111"/>

  <!-- Top-left pentagon -->
  <polygon points="25,15 40,15 35,30 20,35 15,22"
           fill="#111"/>

  <!-- Top-right pentagon -->
  <polygon points="75,15 85,22 80,35 65,30 60,15"
           fill="#111"/>

  <!-- Bottom-left pentagon -->
  <polygon points="15,65 25,75 30,88 15,92 8,78"
           fill="#111"/>

  <!-- Bottom-right pentagon -->
  <polygon points="85,65 92,78 85,92 70,88 75,75"
           fill="#111"/>

  <!-- Bottom-centre pentagon -->
  <polygon points="38,85 50,78 62,85 58,98 42,98"
           fill="#111"/>

  <!-- Outer circle border -->
  <circle cx="50" cy="50" r="48" fill="none" stroke="#111" stroke-width="3"/>
</svg>
